<svg fill="none" height="24" viewBox="0 0 24 24" width="24" xmlns="http://www.w3.org/2000/svg"><path d="m19 11h-11.16995l4.87995-4.87999c.39-.39.39-1.03 0-1.42-.0925-.09271-.2024-.16626-.3233-.21644-.121-.05018-.2507-.07601-.3817-.07601-.1309 0-.2606.02583-.3816.07601s-.2308.12373-.3234.21644l-6.58995 6.58999c-.09271.0925-.16625.2024-.21644.3234-.05018.121-.07601.2506-.07601.3816s.02583.2607.07601.3816c.05019.121.12373.2309.21644.3234l6.58995 6.59c.0926.0926.2025.166.3235.2161s.2506.0759.3815.0759c.131 0 .2606-.0258.3816-.0759s.2309-.1235.3234-.2161c.0926-.0926.1661-.2025.2162-.3235.0501-.1209.0759-.2506.0759-.3815s-.0258-.2606-.0759-.3815c-.0501-.121-.1236-.2309-.2162-.3235l-4.87995-4.88h11.16995c.55 0 1-.45 1-1s-.45-1-1-1z" fill="#757575"/></svg>