<svg fill="none" height="19" viewBox="0 0 56 19" width="56" xmlns="http://www.w3.org/2000/svg" xmlns:xlink="http://www.w3.org/1999/xlink"><linearGradient id="a" gradientUnits="userSpaceOnUse" x1="0" x2="56" y1="8.5" y2="8.5"><stop offset="0" stop-color="#655dfe"/><stop offset="1" stop-color="#8580ff"/></linearGradient><g fill="url(#a)"><path d="m11.533 17.888c-.2407 0-.4433-.1013-.608-.304l-2.071-2.47c-.31667.0507-.69667.076-1.14.076-1.33 0-2.49533-.2913-3.496-.874s-1.77333-1.387-2.318-2.413-.82967-2.204-.855-3.534c.02533-1.33.31033-2.508.855-3.534s1.31733-1.83033 2.318-2.413 2.166-.874 3.496-.874 2.489.29133 3.477.874c1.0007.58267 1.7733 1.39333 2.318 2.432.5573 1.026.8487 2.19767.874 3.515-.0253 1.482-.3863 2.7803-1.083 3.895-.684 1.102-1.634 1.9063-2.85 2.413l1.672 1.843c.152.152.228.3357.228.551.0127.2153-.0633.4053-.228.57s-.361.247-.589.247zm-3.819-4.313c1.01333 0 1.89367-.228 2.641-.684.7473-.456 1.3173-1.0767 1.71-1.862s.589-1.672.589-2.66-.1963-1.87467-.589-2.66-.9627-1.406-1.71-1.862c-.74733-.456-1.62767-.684-2.641-.684-1.026 0-1.91267.228-2.66.684-.73467.456-1.29833 1.07667-1.691 1.862s-.589 1.672-.589 2.66.19633 1.8747.589 2.66.95633 1.406 1.691 1.862c.74733.456 1.634.684 2.66.684zm14.0889 1.52c-.2533 0-.4813-.0697-.684-.209-.19-.152-.3356-.3673-.437-.646l-3.724-11.438c-.038-.13933-.057-.247-.057-.323-.0126-.24067.057-.437.209-.589.1647-.16467.3737-.247.627-.247.2027 0 .38.06333.532.19s.2597.29133.323.494l3.192 10.488 3.211-10.45c.0634-.21533.1837-.38633.361-.513.19-.13933.399-.209.627-.209s.4307.06967.608.209c.19.12667.3167.29767.38.513l3.211 10.45 3.192-10.488c.0634-.20267.171-.36733.323-.494s.3294-.19.532-.19c.2534 0 .456.08233.608.247.1647.152.2407.34833.228.589 0 .076-.019.18367-.057.323l-3.724 11.438c-.1013.2787-.2533.494-.456.646-.19.1393-.4116.209-.665.209-.2533 0-.4876-.076-.703-.228-.2026-.1647-.342-.3737-.418-.627l-3.059-9.69-3.059 9.69c-.076.2533-.2216.4623-.437.627-.2026.152-.4306.228-.684.228zm17.4181 0c-.2406 0-.4433-.0823-.608-.247-.1646-.1647-.247-.3673-.247-.608v-11.723c0-.24067.0824-.44333.247-.608.1647-.17733.3674-.266.608-.266.2407 0 .4434.08867.608.266.1774.16467.266.36733.266.608v11.723c0 .2407-.0886.4433-.266.608-.1646.1647-.3673.247-.608.247zm5.304 0c-.2153 0-.4053-.076-.57-.228-.152-.1647-.228-.3547-.228-.57 0-.2027.057-.38.171-.532l4.389-5.396-4.351-5.358c-.114-.152-.171-.32933-.171-.532 0-.24067.076-.437.228-.589.1647-.16467.3673-.247.608-.247.1393 0 .2723.03167.399.095s.228.14567.304.247l4.009 5.092 4.009-5.13c.1393-.20267.3483-.304.627-.304.228 0 .4243.08233.589.247.1647.152.247.342.247.57 0 .17733-.0507.33567-.152.475l-4.389 5.415 4.389 5.396c.114.1267.171.2913.171.494 0 .2407-.0823.4433-.247.608-.152.1647-.3547.247-.608.247-.2787 0-.5067-.1203-.684-.361l-4.066-5.111-4.009 5.13c-.19.228-.4117.342-.665.342z"/><path d="m10.925 17.584.7761-.6306-.0049-.006-.0049-.0059zm-2.071-2.47.76629-.6425-.36434-.4345-.55994.0896zm-4.636-.798.50319-.8642zm-2.318-2.413-.88326.4689zm-.855-3.534-.9998186-.01904-.0003627.01904.0003627.01904zm.855-3.534.88326.46889zm2.318-2.413-.50319-.86418zm6.973 0-.508.86138.0048.00279zm2.318 2.432-.8856.46441.0034.00648.0035.00644zm.874 3.515.9999.01709.0003-.01816-.0004-.01816zm-1.083 3.895-.848-.53-.0016.0026zm-2.85 2.413-.3846-.9231-1.30844.5452.95241 1.0498zm1.672 1.843-.7406.6719.0163.018.0172.0172zm.228.551h-1v.0294l.0017.0293zm-.228.57.7071.7071zm-1.767-4.75-.52086-.8536zm1.71-1.862.8944.4472zm0-5.32.8944-.44721zm-1.71-1.862-.52086.85364zm-5.301 0-.52088-.85366-.00648.00402zm-1.691 1.862-.89443-.44721zm0 5.32-.89443.4472zm1.691 1.862-.52738.8497.00652.0039zm6.479 3.997c.025 0 .0686.0065.1147.0296.0438.0219.0597.0436.0534.0358l-1.5522 1.2612c.3361.4137.8142.6734 1.3841.6734zm.1583.0535-2.07101-2.47-1.53257 1.285 2.07098 2.47zm-2.99529-2.8149c-.24892.0398-.57315.0634-.98201.0634v2c.47781 0 .91358-.0271 1.29799-.0886zm-.98201.0634c-1.17988 0-2.16642-.257-2.99281-.7382l-1.00638 1.7284c1.17495.6841 2.51907 1.0098 3.99919 1.0098zm-2.99281-.7382c-.83908-.4886-1.48035-1.1557-1.93793-2.0177l-1.76652.9378c.63176 1.19 1.53582 2.1315 2.69807 2.8083zm-1.93793-2.0177c-.46099-.8684-.71566-1.88826-.73844-3.08414l-1.9996386.03808c.027888 1.46412.3432176 2.80026.9715586 3.98386zm-.73844-3.04606c.02278-1.19588.27745-2.21578.73844-3.08415l-1.76652-.93778c-.628341 1.18363-.9436706 2.51973-.9715586 3.98385zm.73844-3.08415c.45758-.86195 1.09885-1.52914 1.93793-2.01772l-1.00638-1.72835c-1.16225.67676-2.06631 1.61824-2.69807 2.80829zm1.93793-2.01772c.82639-.48118 1.81293-.73817 2.99281-.73817v-2c-1.48012 0-2.82424.325678-3.99919 1.00982zm2.99281-.73817c1.18022 0 2.15803.25709 2.969.73537l1.016-1.72274c-1.165-.687055-2.50521-1.01263-3.985-1.01263zm2.9738.73817c.8359.48675 1.4771 1.15788 1.9356 2.03224l1.7712-.92882c-.6308-1.20297-1.535-2.15318-2.7004-2.83177zm1.9425 2.04516c.4715.868.7302 1.87896.7529 3.0569l1.9996-.03846c-.028-1.45673-.3519-2.7891-.9951-3.9731zm.7528 3.02058c-.0226 1.32413-.3425 2.44039-.9311 3.38209l1.696 1.06c.8048-1.2876 1.2068-2.768 1.2349-4.40791zm-.9327 3.38469c-.5722.9219-1.3583 1.5895-2.385 2.0173l.7692 1.8462c1.4053-.5855 2.5192-1.5266 3.315-2.8087zm-2.74103 3.6123 1.67203 1.843 1.4812-1.3438-1.672-1.843zm1.70553 1.8782c-.0093-.0093-.0297-.0338-.0459-.073s-.019-.0706-.019-.0831h2c0-.48-.181-.9182-.5209-1.2581zm-.0632-.0974c-.0018-.0309.0028-.0772.0223-.1261.009-.0224.019-.0399.0274-.0524.0083-.0121.0138-.0177.0135-.0173l1.4142 1.4142c.3485-.3485.5501-.8107.5192-1.3358zm.0632-.1958c-.0003.0002.0039-.0039.013-.0101.0092-.0064.0216-.0134.0366-.0197.0328-.0138.0592-.0161.0685-.0161v2c.4995 0 .9484-.1922 1.2961-.5399zm-3.7009-2.3589c1.16767 0 2.2343-.2644 3.1619-.8304l-1.04176-1.7072c-.5671.346-1.26114.5376-2.12014.5376zm3.1619-.8304c.908-.554 1.6072-1.3157 2.0835-2.2684l-1.7888-.8944c-.309.618-.7498 1.0976-1.33646 1.4556zm2.0835-2.2684c.4704-.9407.6946-1.98357.6946-3.1072h-2c0 .85237-.1685 1.58285-.4834 2.2128zm.6946-3.1072c0-1.12363-.2242-2.16648-.6946-3.10721l-1.7888.89442c.3149.62994.4834 1.36042.4834 2.21279zm-.6946-3.10721c-.4763-.95266-1.1755-1.71438-2.0835-2.26843l-1.04176 1.70728c.58666.35795 1.02746.83756 1.33646 1.45557zm-2.0835-2.26843c-.9276-.56597-1.99423-.83036-3.1619-.83036v2c.859 0 1.55304.19161 2.12014.53764zm-3.1619-.83036c-1.17775 0-2.2514.26323-3.18086.83036l1.04172 1.70728c.56521-.34487 1.26489-.53764 2.13914-.53764zm-3.18736.83436c-.89445.55517-1.58399 1.31627-2.05807 2.26443l1.78886.89442c.31125-.62251.74904-1.10274 1.32393-1.45957zm-2.05807 2.26443c-.47036.94073-.69457 1.98358-.69457 3.10721h2c0-.85237.16846-1.58285.48343-2.21279zm-.69457 3.10721c0 1.12363.22421 2.1665.69457 3.1072l1.78886-.8944c-.31497-.62995-.48343-1.36043-.48343-2.2128zm.69457 3.1072c.47408.9482 1.16362 1.7093 2.05807 2.2644l1.05472-1.6992c-.57489-.3569-1.01268-.8371-1.32393-1.4596zm2.06457 2.2684c.92946.5672 2.00311.8304 3.18086.8304v-2c-.87425 0-1.57393-.1928-2.13914-.5376zm16.58576 1.1414-.6246.7809.0283.0226.0298.0205zm-.437-.646-.9508.3096.0052.0162.0059.0159zm-3.724-11.438-.9647.26312.0064.0234.0075.02307zm-.057-.323h1v-.0263l-.0013-.02626zm.209-.589-.7071-.70711zm1.159-.057-.6401.76822zm.323.494.9567-.29117-.0022-.00711zm3.192 10.488-.9566.2912.9521 3.1283.9604-3.1258zm3.211-10.45.956.29374.0034-.01157zm.361-.513.5813.8138.0101-.00739zm1.235 0-.6178.78632.0307.0241.0324.02163zm.38.513-.9594.28219.0036.01153zm3.211 10.45-.9558.2937.9604 3.1258.9521-3.1283zm3.192-10.488-.9545-.29828-.0021.00712zm.323-.494.6402.76822zm1.14.057-.7348.67828.0272.02939.0294.02713zm.228.589-.9986-.05256-.0014.02626v.0263zm-.057.323.9509.30959.0075-.02307.0064-.02341zm-3.724 11.438.9398.3417.0059-.0159.0052-.0162zm-.456.646.5914.8065.0086-.0065zm-1.368-.019-.6305.7761.0262.0214.0277.0195zm-.418-.627.9579-.2873-.0021-.0069-.0021-.0068zm-3.059-9.69.9537-.30104-.9537-3.02076-.9536 3.02076zm-3.059 9.69-.9536-.301-.0021.0068-.0021.0069zm-.437.627.6001.8.0074-.0056zm-.684-.772c-.0575 0-.0867-.0119-.1174-.033l-1.1331 1.648c.3746.2576.8014.385 1.2505.385zm-.0593.0101c-.0182-.0145-.0695-.0629-.1219-.2068l-1.8795.6834c.1503.4135.3903.7957.7521 1.0852zm-.1108-.1747-3.724-11.43799-1.9017.61918 3.724 11.43801zm-3.7101-11.39152c-.0133-.04893-.0199-.0799-.0227-.09592-.0014-.00755-.0013-.00854-.0008-.00392.0004.00426.0017.01824.0017.03996h-2c0 .21209.0479.4233.0923.58612zm-.0231-.11244c-.0005-.0093.0021.01545-.0135.05922-.0165.04655-.0433.08571-.069.11145l-1.4143-1.41422c-.3779.37795-.526.86302-.5005 1.34867zm-.0825.17067c-.0045.00444-.0124.01144-.0239.01905-.0116.00765-.0241.01412-.0365.019-.0262.01032-.0369.00784-.0198.00784v-2c-.4928 0-.9644.170279-1.3341.53989zm-.0802.04589c-.0045 0-.0241-.00103-.0513-.01076-.0276-.00984-.0472-.02296-.0568-.03102l1.2803-1.53644c-.3364-.280352-.7417-.42178-1.1722-.42178zm-.1081-.04178c.0006.0005.0002.00023-.0007-.00072-.0004-.00043-.0007-.00085-.001-.00122s-.0004-.00057-.0004-.00053c.0001.00004.0003.00043.0008.00125.0004.00082.0011.00218.0021.00415.0018.00391.0046.01071.0079.02112l1.9089-.59655c-.1163-.37224-.3266-.70503-.6373-.96394zm.0065.01694 3.192 10.48804 1.9133-.5824-3.192-10.48796zm5.1045 10.49054 3.211-10.44998-1.9117-.58744-3.211 10.45002zm3.2145-10.46153c.0017-.00585.0027-.00749.002-.006-.0008.00158-.0026.00506-.0058.00957-.0032.00453-.0066.00855-.0098.01168-.003.00309-.0046.00409-.0035.00331l-1.1625-1.62746c-.365.26075-.6147.6217-.7391 1.04456zm-.007.01124c.009-.00657.0152-.01018.0187-.01202.0035-.0018.0052-.00237.0054-.00246.0003-.00008.0006-.00019.0015-.00034.001-.00016.0042-.00059.01-.00059v-2c-.4481 0-.8629.141979-1.2183.40259zm.0356-.01541c.006 0 .0079.00044.0066.00023-.0014-.00022-.0045-.00087-.0086-.00229-.0042-.00143-.0075-.00301-.0096-.00416-.0021-.00112-.0014-.00102.0018.00154l1.2357-1.57264c-.3556-.279406-.7765-.42268-1.2259-.42268zm.0533.04105c.0037.00242.0033.00258.0005-.00011-.003-.00277-.0072-.0073-.0118-.01346-.0046-.00619-.0082-.01225-.0107-.01735-.0024-.00502-.003-.0074-.0026-.00596l1.9187-.56434c-.1308-.44466-.4031-.80854-.7847-1.06288zm-.0211-.02533 3.211 10.44998 1.9117-.5874-3.211-10.45002zm5.1235 10.44748 3.192-10.48804-1.9133-.58232-3.192 10.48796zm3.1898-10.48093c.0033-.01041.0061-.01721.0079-.02112.001-.00197.0017-.00333.0021-.00415.0005-.00082.0007-.00121.0008-.00125 0-.00004-.0001.00016-.0004.00053s-.0006.00079-.001.00122c-.0009.00095-.0013.00122-.0007.00072l-1.2803-1.53644c-.3107.25891-.521.5917-.6373.96394zm.0087-.02405c-.0096.00806-.0293.02118-.0568.03102-.0273.00973-.0468.01076-.0514.01076v-2c-.4304 0-.8357.141428-1.1721.42178zm-.1082.04178c.0178 0 .0012.00266-.0343-.01178-.0384-.01558-.0712-.03991-.0925-.06294l1.4697-1.35656c-.367-.397539-.8506-.56872-1.3429-.56872zm-.0702-.0182c-.0225-.02073-.0532-.05924-.0738-.11256-.0095-.02439-.0144-.0458-.0167-.062-.0023-.01585-.0018-.0244-.0019-.0238l1.9973.10512c.0269-.51215-.147-1.00588-.5484-1.37636zm-.0938-.1458c0-.02172.0013-.0357.0018-.03996.0005-.00462.0005-.00362-.0008.00393-.0028.01601-.0094.04698-.0227.09592l1.9295.52622c.0444-.16281.0922-.37403.0922-.58611zm-.0078.01341-3.724 11.43799 1.9017.6192 3.724-11.43801zm-3.7129 11.40589c-.0466.1279-.0939.171-.1163.1877l1.2 1.6c.3831-.2873.6397-.6748.7958-1.1043zm-.1076.1813c-.0053.0039-.0161.0154-.0737.0154v2c.4491 0 .8817-.1278 1.2564-.4026zm-.0737.0154c-.0381 0-.0724-.0069-.1263-.045l-1.1533 1.634c.3768.2659.8111.411 1.2796.411zm-.0724-.0041c-.0449-.0365-.0715-.0743-.0907-.1382l-1.9157.5746c.1328.4428.3849.823.7453 1.1158zm-.0949-.1519-3.059-9.69004-1.9073.60208 3.059 9.68996zm-4.9663-9.69004-3.059 9.69004 1.9073.602 3.059-9.68996zm-3.0632 9.70374c-.0139.0463-.0341.0798-.0866.1199l1.2149 1.5888c.3781-.2892.6493-.6737.7874-1.1341zm-.0792.1143c-.0295.0222-.047.028-.084.028v2c.4697 0 .9083-.1462 1.284-.428zm16.7261.781.7072-.7071zm0-12.939.7072.70711.013-.01309.0126-.01357zm1.216 0-.7327.68045.0252.02714.0271.0252zm0 12.939-.6804-.7328-.0136.0126-.0131.0131zm-.6079-.753c-.0043 0 .0142-.0003.0438.0118.0303.0123.0493.0281.0553.0341l-1.4143 1.4142c.3591.3591.8192.5399 1.3152.5399zm.0991.0459c.0059.006.0217.0249.0341.0552.012.0297.0117.0482.0117.0439h-2c0 .496.1808.956.5399 1.3151zm.0458.0991v-11.723h-2v11.723zm0-11.723c0-.00427.0003.01422-.0117.04388-.0124.03031-.0282.04926-.0341.05523l-1.4143-1.41422c-.3591.3591-.5399.81915-.5399 1.31511zm-.0202.07245c-.0021.00232-.0207.02059-.0564.03621-.0359.01567-.063.01734-.0683.01734v-2c-.5205 0-.9882.205731-1.3408.58555zm-.1247.05355c-.0054 0-.0325-.00167-.0684-.01734-.0357-.01562-.0543-.03389-.0564-.03621l1.4655-1.3609c-.3526-.379819-.8203-.58555-1.3407-.58555zm-.0725-.00121c-.0023-.00215-.0206-.02078-.0362-.05647-.0157-.03582-.0174-.06295-.0174-.06832h2c0-.52048-.2057-.98811-.5855-1.34079zm-.0536-.12479v11.723h2v-11.723zm0 11.723c0-.0054.0017-.0325.0174-.0683.0156-.0357.0339-.0543.0362-.0565l1.3609 1.4656c.3798-.3527.5855-.8203.5855-1.3408zm.0269-.0991c.006-.006.025-.0218.0553-.0341.0296-.0121.0481-.0118.0439-.0118v2c.4959 0 .956-.1808 1.3151-.5399zm4.8331.7261-.7348.6783.0271.0294.0294.0271zm-.057-1.102-.7758-.631-.0124.0153-.0118.0157zm4.389-5.396.7758.631.5128-.63049-.5123-.63089zm-4.351-5.358-.8.6.0116.01542.0121.01496zm.057-1.121-.7071-.70711zm1.007-.152.4472-.894428zm.304.247-.8.6.0071.00938.0072.00922zm4.009 5.092-.7857.6186.7886 1.00167.7851-1.00451zm4.009-5.13.788.61576.0188-.02407.0173-.02516zm1.216-.057-.7071.70711.0141.01413.0147.01356zm.095 1.045.7769.62967.0165-.02033.0153-.02117zm-4.389 5.415-.7768-.62967-.5113.63078.5123.62989zm4.389 5.396-.7758.631.0158.0194.0167.0186zm-.076 1.102-.7071-.7071-.0141.0141-.0136.0147zm-1.292-.114.8051-.5932-.011-.0149-.0115-.0145zm-4.066-5.111.7826-.62256-.7896-.9925-.7809.9993zm-4.009 5.13.7682.6402.0101-.0121.0097-.0123zm-.665-.658c.0128 0 .0382.0028.0674.0145.0286.0114.0421.0238.0409.0227l-1.3566 1.4696c.3411.3149.7705.4932 1.2483.4932zm.1648.0937c-.0011-.0012.0113.0124.0227.0409.0117.0292.0145.0546.0145.0674h-2c0 .4778.1783.9072.4932 1.2483zm.0372.1083c0-.0066.0008.0025-.0052.021-.0062.0192-.0155.0359-.0238.047l-1.6-1.2c-.2527.337-.371.7283-.371 1.132zm-.0532.099 4.389-5.396-1.5516-1.262-4.389 5.396zm4.3895-6.65738-4.351-5.35801-1.5526 1.26077 4.351 5.358zm-4.3273-5.32762c.0083.01106.0176.02776.0238.04699.006.01854.0052.02758.0052.02101h-2c0 .40368.1183.79501.371 1.132zm.029.068c0-.01436.0021.00102-.0104.03324-.0133.03442-.0342.06457-.0545.08487l-1.4142-1.41422c-.3627.36271-.5209.82489-.5209 1.29611zm-.0649.11811c-.0059.00596-.0249.02179-.0552.03411-.0297.01204-.0482.01178-.0439.01178v-2c-.496 0-.956.18079-1.3151.53989zm-.0991.04589c-.0068 0-.0165-.00087-.0274-.00344-.0107-.00257-.018-.00572-.0208-.00713l.8944-1.788858c-.2631-.13158-.549-.200572-.8462-.200572zm-.0482-.01057c.0035.00176-.0019-.00053-.0124-.00907-.0108-.00879-.0238-.02163-.0364-.03836l1.6-1.2c-.1796-.23955-.4078-.416951-.6568-.541428zm-.0345-.02883 4.009 5.092 1.5714-1.2372-4.009-5.092zm5.5827 5.08916 4.009-5.13-1.5759-1.23152-4.009 5.13zm4.0451-5.17923c-.0226.03277-.0659.07585-.1266.10528-.0559.02715-.0885.02419-.0705.02419v-2c-.557 0-1.098.224004-1.451.73747zm-.1971.12947c-.0092 0-.0357-.0023-.0685-.01606-.015-.0063-.0274-.01338-.0366-.01969-.0091-.00621-.0132-.0104-.013-.01014l1.4142-1.41422c-.3477-.347708-.7966-.53989-1.2961-.53989zm-.0893-.0182c-.0115-.01064-.0353-.03763-.054-.08069-.0185-.04267-.0207-.07524-.0207-.08411h2c0-.50157-.1949-.95978-.5687-1.3048zm-.0747-.1648c0-.00787.0014-.0273.0096-.05303.0083-.02601.02-.04677.0297-.06014l1.6174 1.17634c.2295-.31554.3433-.68112.3433-1.06317zm.0712-.15467-4.389 5.415 1.5537 1.25934 4.389-5.415zm-4.388 6.67567 4.389 5.396 1.5516-1.262-4.389-5.396zm4.4215 5.434c-.0344-.0383-.0592-.0824-.0734-.1234-.0133-.0385-.0123-.0594-.0123-.0516h2c0-.4003-.1181-.819-.4277-1.163zm-.0857-.175c0 .0043-.0003-.0142.0118-.0439.0123-.0303.0281-.0492.0341-.0552l1.4142 1.4142c.3591-.3591.5399-.8191.5399-1.3151zm.0182-.0703c.0213-.023.0541-.0473.0924-.0629.0356-.0145.0522-.0118.0344-.0118v2c.4922 0 .9759-.1712 1.3428-.5687zm.1268-.0747c.0027 0 .0141.0004.0316.0045.0178.0042.0369.0112.0552.0209.0389.0205.0478.0387.0343.0204l-1.6101 1.1864c.3498.4748.8666.7678 1.489.7678zm.0986.0164-4.066-5.11096-1.5652 1.24516 4.066 5.111zm-5.6365-5.10416-4.009 5.12996 1.5759 1.2316 4.0089-5.13zm-3.9893 5.10556c-.0252.0303-.0268.0223.0021.0074.0142-.0073.0319-.0142.0518-.019.0199-.0047.037-.0062.0493-.0062v2c.6024 0 1.0895-.2893 1.4332-.7018z"/></g></svg>