<svg fill="none" height="24" viewBox="0 0 24 24" width="24" xmlns="http://www.w3.org/2000/svg"><g fill="#757575"><path d="m22 18.005c0 .55-.446.995-.995.995h-8.01c-.2639 0-.517-.1048-.7036-.2914s-.2914-.4397-.2914-.7036.1048-.517.2914-.7036.4397-.2914.7036-.2914h8.01c.55 0 .995.445.995.995z"/><path d="m22 12c0 .55-.446.995-.995.995h-18.01c-.26389 0-.51697-.1048-.70357-.2914s-.29143-.4397-.29143-.7036.10483-.517.29143-.7036.43968-.2914.70357-.2914h18.01c.55 0 .995.446.995.995z"/><path d="m21.005 6.99c.2639 0 .517-.10483.7036-.29143s.2914-.43968.2914-.70357-.1048-.51697-.2914-.70357-.4397-.29143-.7036-.29143h-12.01c-.13067 0-.26005.02574-.38077.07574s-.23041.12329-.3228.21569c-.0924.09239-.16569.20208-.21569.3228s-.07574.2501-.07574.38077.02574.26005.07574.38077.12329.23041.21569.3228c.09239.0924.20208.16569.3228.21569s.2501.07574.38077.07574z"/></g></svg>