<svg fill="none" height="24" viewBox="0 0 24 24" width="24" xmlns="http://www.w3.org/2000/svg"><g clip-rule="evenodd" fill="#fff" fill-rule="evenodd"><path d="m12 22.5c2.7848 0 5.4555-1.1062 7.4246-3.0754 1.9692-1.9691 3.0754-4.6398 3.0754-7.4246 0-2.78477-1.1062-5.45549-3.0754-7.42462-1.9691-1.96913-4.6398-3.07538-7.4246-3.07538-2.78477 0-5.45549 1.10625-7.42462 3.07538s-3.07538 4.63985-3.07538 7.42462c0 2.7848 1.10625 5.4555 3.07538 7.4246 1.96913 1.9692 4.63985 3.0754 7.42462 3.0754zm0 1.5c3.1826 0 6.2348-1.2643 8.4853-3.5147 2.2504-2.2505 3.5147-5.3027 3.5147-8.4853s-1.2643-6.23484-3.5147-8.48528c-2.2505-2.25044-5.3027-3.51472-8.4853-3.51472s-6.23484 1.26428-8.48528 3.51472-3.51472 5.30268-3.51472 8.48528 1.26428 6.2348 3.51472 8.4853c2.25044 2.2504 5.30268 3.5147 8.48528 3.5147z"/><path d="m16.455 7.45499c.2099-.20809.4933-.3252.7889-.32602.2956-.00081.5796.11473.7907.32166.211.20694.3322.48862.3372.78417.0051.29554-.1064.58119-.3103.79519l-5.988 7.48501c-.1029.1108-.2271.1998-.3652.2615-.1381.0618-.2872.0951-.4384.0979-.1513.0028-.3015-.025-.4418-.0816-.1402-.0565-.2677-.1408-.3746-.2478l-3.96751-3.969c-.11053-.103-.19918-.2272-.26067-.3652s-.09455-.287-.09722-.438c-.00266-.1511.02513-.3011.08171-.4412s.1408-.2673.24762-.3742c.10683-.1068.23408-.191.37417-.2476.14008-.0566.29012-.0844.44118-.0817.15105.0027.30002.0357.43802.0972s.2622.1502.36519.2607l3.14101 3.1395 5.2095-6.63751c.0093-.01162.0193-.02264.03-.033z"/></g></svg>