<svg fill="none" height="24" viewBox="0 0 24 24" width="24" xmlns="http://www.w3.org/2000/svg"><g fill="#363636"><path d="m12 13.5c-.7417 0-1.4667-.2199-2.08339-.632-.61668-.412-1.09733-.9977-1.38116-1.6829-.28383-.6853-.35809-1.43926-.21339-2.16669.14469-.72743.50184-1.39561 1.02629-1.92006s1.19265-.8816 1.92005-1.02629c.7274-.1447 1.4814-.07044 2.1667.21339.6852.28383 1.2709.76448 1.6829 1.38116.4121.61669.632 1.34171.632 2.08339-.0012.9942-.3967 1.9473-1.0997 2.6503s-1.6561 1.0985-2.6503 1.0997zm0-6c-.445 0-.88.13196-1.25.3792-.37.24723-.6584.59863-.82873 1.00976-.17029.41114-.21485.86354-.12804 1.30004.08682.4364.30107.8373.61577 1.152s.7156.529 1.152.6158c.4365.0868.8889.0422 1.3-.1281.4112-.1703.7626-.4587 1.0098-.8287s.3792-.805.3792-1.25c-.0006-.59655-.2378-1.1685-.6597-1.59033-.4218-.42183-.9937-.65907-1.5903-.65967z"/><path d="m12 22.5-6.32699-7.4618c-.08792-.112-.17492-.2247-.261-.3382-1.08077-1.4237-1.66462-3.1626-1.662-4.95 0-2.18804.86919-4.28646 2.41637-5.83363 1.54717-1.54718 3.64559-2.41637 5.83362-2.41637 2.188 0 4.2865.86919 5.8336 2.41637 1.5472 1.54717 2.4164 3.64559 2.4164 5.83363.0026 1.7866-.581 3.5247-1.6612 4.9478l-.0008.0022s-.225.2955-.2587.3353zm-5.39099-8.7037c.0015 0 .1755.2309.21525.2804l5.17574 6.1043 5.1825-6.1125c.033-.0413.2085-.2737.2093-.2745.8828-1.1632 1.3599-2.5837 1.3582-4.044 0-1.79021-.7112-3.5071-1.977-4.77297-1.2659-1.26587-2.9828-1.97703-4.773-1.97703s-3.50709.71116-4.77296 1.97703-1.97703 2.98276-1.97703 4.77297c-.00157 1.4612.47608 2.8826 1.35975 4.0463z"/></g></svg>