<svg fill="none" height="50" viewBox="0 0 50 50" width="50" xmlns="http://www.w3.org/2000/svg" xmlns:xlink="http://www.w3.org/1999/xlink"><linearGradient id="a" gradientUnits="userSpaceOnUse" x1="14.6152" x2="35.4329" y1="24.6795" y2="24.6795"><stop offset="0" stop-color="#655dfe"/><stop offset="1" stop-color="#8580ff"/></linearGradient><path d="m22.9224 24.4712c-2.5237-.5228-4.7641-1.9622-6.2886-4.0402-1.5244-2.078-2.2248-4.6472-1.9658-7.2113.259-2.5642 1.459-4.94145 3.3683-6.67261 1.9092-1.73116 4.3922-2.69342 6.9694-2.70094 2.5832-.0026 5.0753.95475 6.9924 2.6862 1.917 1.73144 3.1224 4.11345 3.382 6.68365.2596 2.5701-.445 5.145-1.9771 7.2249-1.5321 2.0798-3.7824 3.5162-6.314 4.0303v18.9583c0 .5525-.2195 1.0824-.6102 1.4731s-.9206.6102-1.4731.6102-1.0824-.2195-1.4731-.6102-.6102-.9206-.6102-1.4731z" fill="url(#a)"/></svg>