<svg width="17" height="17" viewBox="0 0 17 17" fill="none" xmlns="http://www.w3.org/2000/svg">
<path d="M5.73106 0.317682C5.35422 -0.0860689 4.72143 -0.107889 4.31768 0.268945C3.91393 0.645779 3.89211 1.27857 4.26894 1.68232L5.73106 0.317682ZM4.26894 15.3177C3.89211 15.7214 3.91393 16.3542 4.31768 16.7311C4.72143 17.1079 5.35422 17.0861 5.73106 16.6823L4.26894 15.3177ZM12 8.5L12.7311 9.18232C13.0896 8.79811 13.0896 8.20189 12.7311 7.81768L12 8.5ZM4.26894 1.68232L11.2689 9.18232L12.7311 7.81768L5.73106 0.317682L4.26894 1.68232ZM11.2689 7.81768L4.26894 15.3177L5.73106 16.6823L12.7311 9.18232L11.2689 7.81768Z" fill="white"/>
</svg>
