<svg width="18" height="18" viewBox="0 0 18 18" fill="none" xmlns="http://www.w3.org/2000/svg">
<path fill-rule="evenodd" clip-rule="evenodd" d="M13.8022 4.22475C13.1785 3.59691 12.4364 3.09909 11.6189 2.76011C10.8014 2.42113 9.92475 2.24775 9.03975 2.25C5.32875 2.25 2.30775 5.27025 2.30625 8.98275C2.30625 10.1692 2.616 11.3272 3.20475 12.3487L2.25 15.837L5.81925 14.9002C6.80655 15.4377 7.91265 15.7195 9.03675 15.72H9.03975C12.75 15.72 15.771 12.6997 15.7725 8.98725C15.775 8.10261 15.6022 7.22624 15.2641 6.40879C14.9259 5.59134 14.429 4.84903 13.8022 4.22475V4.22475ZM9.03975 14.5837H9.0375C8.03514 14.5839 7.05122 14.3142 6.189 13.803L5.985 13.6815L3.867 14.2372L4.43175 12.1725L4.299 11.961C3.73859 11.0688 3.44192 10.0363 3.44325 8.98275C3.44475 5.89725 5.955 3.387 9.042 3.387C9.77719 3.38537 10.5054 3.52956 11.1845 3.81124C11.8636 4.09291 12.4801 4.50648 12.9982 5.028C13.5192 5.54703 13.9321 6.16417 14.2132 6.84375C14.4942 7.52332 14.6377 8.25186 14.6355 8.98725C14.634 12.0727 12.1238 14.5837 9.03975 14.5837ZM12.1095 10.392C11.9407 10.3072 11.1142 9.90075 10.9597 9.8445C10.806 9.78825 10.6943 9.7605 10.5818 9.9285C10.4693 10.0965 10.1467 10.4752 10.0485 10.5877C9.95025 10.7002 9.852 10.7137 9.684 10.6297C9.516 10.5457 8.97375 10.368 8.331 9.795C7.83075 9.34875 7.49325 8.79825 7.395 8.6295C7.29675 8.46075 7.3845 8.37 7.46925 8.286C7.545 8.211 7.63725 8.0895 7.72125 7.99125C7.80525 7.893 7.833 7.82325 7.88925 7.71075C7.9455 7.59825 7.91775 7.5 7.875 7.416C7.833 7.33125 7.49625 6.50325 7.356 6.1665C7.22025 5.84025 7.0815 5.88375 6.978 5.87925C6.87081 5.87486 6.76353 5.87286 6.65625 5.87325C6.57094 5.87542 6.487 5.8952 6.4097 5.93133C6.33239 5.96747 6.26338 6.01919 6.207 6.08325C6.0525 6.252 5.61825 6.6585 5.61825 7.4865C5.61825 8.3145 6.22125 9.11475 6.30525 9.22725C6.38925 9.33975 7.49175 11.0385 9.17925 11.7675C9.58125 11.9407 9.89475 12.0442 10.1385 12.1222C10.5412 12.2505 10.908 12.2317 11.1982 12.189C11.5215 12.141 12.1935 11.7825 12.3337 11.3895C12.474 10.9965 12.474 10.6597 12.432 10.5892C12.39 10.5187 12.2767 10.476 12.1095 10.392" fill="white" fill-opacity="0.8"/>
</svg>
